# This file uses centimeters as units for non-parametric coordinates.

mtllib chão.mtl
g default
v 46.358971 -28.447918 44.129650
v 38.732006 -28.447918 44.129650
v 26.122290 -28.447918 44.129650
v 25.360613 -28.443044 44.129650
v 20.117918 -28.447918 44.129650
v 19.399452 -28.447918 44.129650
v 5.824049 -28.447918 44.129650
v -1.400616 -28.447918 -36.953575
v 5.824049 -28.447918 -36.953575
v 19.399452 -28.447918 -36.953575
v 20.122906 -28.447918 -36.953575
v 25.359615 -28.447918 -36.953575
v 26.122290 -28.447918 -36.953575
v 38.732006 -28.447918 -36.953575
v 46.358974 -28.447918 -36.953575
v 46.358974 -28.447918 45.183540
v 47.301651 -28.447918 45.183540
v 47.301651 -28.447918 44.129650
v 38.732006 -28.447918 45.183540
v 5.824049 -28.447918 45.183540
v 19.399452 -28.447918 45.183540
v -1.400616 -28.447918 45.183540
v -1.400616 -28.447918 44.129650
v 26.122290 -28.447918 45.183540
v 47.301651 -28.447918 -36.953575
v 47.301651 -28.447918 -37.718899
v 46.358974 -28.447918 -37.718899
v 38.732006 -28.447918 -37.718899
v 26.122290 -28.447918 -37.718899
v 25.345675 -28.447918 -37.718899
v 20.136869 -28.447918 -37.718899
v 19.399452 -28.447918 -37.718899
v 5.824049 -28.447918 -37.718899
v -1.400616 -28.447918 -37.718899
v -1.697626 -28.447918 -37.718899
v -1.697626 -28.447918 -36.953575
v -1.697626 -28.447918 44.129650
v 25.361605 -28.447918 45.183540
v 20.112928 -28.447918 45.183540
vt 0.014648 0.021385
vt 0.014648 0.014649
vt 0.022179 0.014649
vt 0.022179 0.021385
vt 0.014648 0.075886
vt 0.022179 0.075886
vt 0.716091 0.607056
vt 0.619084 0.607056
vt 0.619084 0.599525
vt 0.716091 0.599525
vt 0.767717 0.607056
vt 0.767717 0.599525
vt 0.022179 0.165993
vt 0.014648 0.165993
vt 0.601587 0.021385
vt 0.601587 0.014649
vt 0.607055 0.014649
vt 0.607055 0.021385
vt 0.601587 0.075886
vt 0.607055 0.075886
vt 0.607055 0.165993
vt 0.601587 0.165993
vt 0.962270 0.607056
vt 0.962368 0.601587
vt 0.967818 0.601586
vt 0.967819 0.607055
vt 0.912670 0.607637
vt 0.912470 0.602171
vt 0.949885 0.601490
vt 0.949885 0.606959
vt 0.985350 0.020119
vt 0.980181 0.020118
vt 0.980082 0.014649
vt 0.985352 0.014650
vt 0.716091 0.020117
vt 0.619084 0.020117
vt 0.619084 0.014649
vt 0.716091 0.014649
vt 0.767717 0.020118
vt 0.767717 0.014649
vt 0.769840 0.020118
vt 0.769840 0.014649
vt 0.769840 0.599525
vt 0.985216 0.599526
vt 0.980082 0.599525
vt 0.901880 0.022861
vt 0.939337 0.022178
vt 0.962270 0.022181
vt 0.967713 0.022180
vt 0.967711 0.014649
vt 0.962276 0.014650
vt 0.985214 0.607057
vt 0.980116 0.607056
vt 0.939207 0.014648
vt 0.901707 0.015332
vn 0.000000 1.000000 0.000000
vn 0.000000 1.000000 0.000000
vn 0.000000 1.000000 0.000000
vn 0.000000 1.000000 -0.000000
vn 0.000000 1.000000 0.000000
vn 0.000000 1.000000 0.000000
vn 0.000000 1.000000 0.000000
vn 0.000000 1.000000 0.000000
vn 0.000000 1.000000 0.000000
vn 0.000000 1.000000 0.000000
vn 0.000000 1.000000 0.000000
vn 0.000000 1.000000 0.000000
vn 0.000180 1.000000 -0.000002
vn 0.000000 1.000000 0.000000
vn 0.000000 1.000000 -0.000000
vn 0.000000 1.000000 -0.000000
vn 0.000000 1.000000 0.000000
vn 0.000000 1.000000 0.000000
vn -0.000000 1.000000 -0.000000
vn -0.000000 1.000000 -0.000000
vn -0.000000 1.000000 -0.000000
vn 0.000181 1.000000 -0.000002
vn 0.000000 1.000000 -0.000000
vn -0.000000 1.000000 -0.000030
vn 0.000000 1.000000 -0.000000
vn -0.000405 1.000000 -0.000026
vn 0.000000 1.000000 0.000000
vn 0.000000 1.000000 -0.000000
vn 0.000000 1.000000 0.000000
vn 0.000000 1.000000 0.000000
vn 0.000000 1.000000 0.000000
vn 0.000000 1.000000 0.000000
vn 0.000000 1.000000 0.000000
vn 0.000000 1.000000 0.000000
vn 0.000000 1.000000 0.000000
vn -0.000409 1.000000 -0.000026
vn 0.000000 1.000000 -0.000030
vn 0.003201 0.999992 0.002311
vn 0.003201 0.999992 0.002311
vn 0.003201 0.999992 0.002311
vn 0.003201 0.999992 0.002311
vn 0.000000 1.000000 0.000000
vn 0.000000 1.000000 0.000000
vn 0.000000 1.000000 0.000000
vn 0.000000 1.000000 0.000000
vn -0.000465 0.999997 0.002311
vn -0.000465 0.999997 0.002311
vn -0.000465 0.999997 0.002311
vn -0.000465 0.999997 0.002311
s 1
g Bookmark Bookmark1 polySurface54 pCube2 group37
usemtl initialShadingGroup
f 16/1/1 17/2/2 18/3/3 1/4/4
f 19/5/5 16/1/1 1/4/4 2/6/6
f 20/7/7 21/8/8 6/9/9 7/10/10
f 22/11/11 20/7/7 7/10/10 23/12/12
f 3/13/13 24/14/14 19/5/5 2/6/6
g polySurface54 pCube2 group37
f 15/15/15 25/16/16 26/17/17 27/18/18
f 14/19/19 15/15/15 27/18/18 28/20/20
f 29/21/21 13/22/22 14/19/19 28/20/20
f 30/23/23 12/24/24 13/25/22 29/26/21
f 31/27/25 11/28/26 12/29/24 30/30/23
f 10/31/27 11/32/26 31/33/25 32/34/28
f 9/35/29 10/36/27 32/37/28 33/38/30
f 8/39/31 9/35/29 33/38/30 34/40/32
f 36/41/33 8/39/31 34/40/32 35/42/34
f 37/43/35 23/12/12 8/39/31 36/41/33
f 23/12/12 7/10/10 9/35/29 8/39/31
f 7/10/10 6/9/9 10/36/27 9/35/29
f 6/44/9 5/45/36 11/32/26 10/31/27
f 12/29/24 11/28/26 5/46/36 4/47/37
f 13/25/22 12/24/24 4/48/37 3/49/13
f 14/19/19 13/22/22 3/13/13 2/6/6
f 2/6/6 1/4/4 15/15/15 14/19/19
f 1/4/4 18/3/3 25/16/16 15/15/15
s off
g Bookmark Bookmark1 polySurface54 pCube2 group37
f 24/50/38 3/49/39 4/48/40 38/51/41
f 6/44/42 21/52/43 39/53/44 5/45/45
f 38/54/46 4/47/47 5/46/48 39/55/49
